<svg width="44" height="44" viewBox="0 0 44 44" fill="none" xmlns="http://www.w3.org/2000/svg">
<path d="M35.7501 27.5H27.5001C25.9876 27.5 24.7501 26.2625 24.7501 24.75C24.7501 23.2375 25.9876 22 27.5001 22H35.7501C35.7501 22 44.0001 12.8047 44.0001 8.25C44.0001 3.69531 40.3048 0 35.7501 0C31.1954 0 27.5001 3.69531 27.5001 8.25C27.5001 10.4414 29.4079 13.6984 31.3931 16.5H27.5001C22.954 16.5 19.2501 20.2039 19.2501 24.75C19.2501 29.2961 22.954 33 27.5001 33H35.7501C37.2626 33 38.5001 34.2375 38.5001 35.75C38.5001 37.2625 37.2626 38.5 35.7501 38.5H15.9415C14.5665 40.6312 13.0368 42.5992 11.8767 44H35.7501C40.2962 44 44.0001 40.2961 44.0001 35.75C44.0001 31.2039 40.2962 27.5 35.7501 27.5ZM35.7501 5.5C37.2712 5.5 38.5001 6.72891 38.5001 8.25C38.5001 9.77109 37.2712 11 35.7501 11C34.229 11 33.0001 9.77109 33.0001 8.25C33.0001 6.72891 34.229 5.5 35.7501 5.5ZM8.25012 22C3.69543 22 0.00012207 25.6953 0.00012207 30.25C0.00012207 34.8047 8.25012 44 8.25012 44C8.25012 44 16.5001 34.8047 16.5001 30.25C16.5001 25.6953 12.8048 22 8.25012 22ZM8.25012 33C6.72903 33 5.50012 31.7711 5.50012 30.25C5.50012 28.7289 6.72903 27.5 8.25012 27.5C9.77122 27.5 11.0001 28.7289 11.0001 30.25C11.0001 31.7711 9.77122 33 8.25012 33Z" fill="#FCFCFC"/>
</svg>
