<svg width="75" height="75" viewBox="0 0 75 75" fill="none" xmlns="http://www.w3.org/2000/svg">
<path d="M34.375 37.1875V53.125C34.375 53.9538 34.7042 54.7486 35.2903 55.3347C35.8763 55.9207 36.6712 56.25 37.5 56.25C38.3288 56.25 39.1237 55.9207 39.7097 55.3347C40.2958 54.7486 40.625 53.9538 40.625 53.125V37.1875C44.4189 36.4131 47.7901 34.2575 50.085 31.1388C52.3799 28.02 53.4351 24.1602 53.0459 20.3077C52.6567 16.4552 50.8509 12.8844 47.9786 10.2877C45.1063 7.69092 41.3721 6.25317 37.5 6.25317C33.6279 6.25317 29.8937 7.69092 27.0214 10.2877C24.1491 12.8844 22.3433 16.4552 21.9541 20.3077C21.5649 24.1602 22.6201 28.02 24.915 31.1388C27.2099 34.2575 30.5811 36.4131 34.375 37.1875ZM37.5 12.5C39.3542 12.5 41.1668 13.0498 42.7085 14.08C44.2502 15.1101 45.4518 16.5743 46.1614 18.2873C46.8709 20.0004 47.0566 21.8854 46.6949 23.704C46.3331 25.5225 45.4402 27.193 44.1291 28.5041C42.818 29.8152 41.1475 30.7081 39.329 31.0698C37.5104 31.4316 35.6254 31.2459 33.9123 30.5364C32.1993 29.8268 30.7351 28.6252 29.705 27.0835C28.6748 25.5417 28.125 23.7292 28.125 21.875C28.125 19.3886 29.1127 17.004 30.8709 15.2459C32.629 13.4877 35.0136 12.5 37.5 12.5V12.5ZM50.6562 45.0625C50.2459 44.9763 49.8225 44.9718 49.4104 45.0492C48.9983 45.1267 48.6055 45.2845 48.2543 45.5137C47.9032 45.743 47.6007 46.0391 47.364 46.3853C47.1273 46.7315 46.9612 47.1209 46.875 47.5312C46.7888 47.9416 46.7843 48.365 46.8617 48.7771C46.9392 49.1892 47.097 49.582 47.3263 49.9332C47.5555 50.2843 47.8517 50.5868 48.1978 50.8235C48.544 51.0601 48.9334 51.2263 49.3437 51.3125C56.4375 52.7187 59.375 55.25 59.375 56.25C59.375 58.0625 51.7188 62.5 37.5 62.5C23.2812 62.5 15.625 58.0625 15.625 56.25C15.625 55.25 18.5625 52.7187 25.6563 51.1875C26.0666 51.1013 26.456 50.9351 26.8022 50.6985C27.1483 50.4618 27.4445 50.1593 27.6737 49.8082C27.903 49.457 28.0608 49.0642 28.1383 48.6521C28.2157 48.24 28.2112 47.8166 28.125 47.4062C28.0388 46.9959 27.8727 46.6065 27.636 46.2603C27.3993 45.9141 27.0968 45.618 26.7457 45.3887C26.3945 45.1595 26.0017 45.0017 25.5896 44.9242C25.1775 44.8468 24.7541 44.8513 24.3437 44.9375C14.8438 47.125 9.375 51.2187 9.375 56.25C9.375 64.4687 23.5313 68.75 37.5 68.75C51.4687 68.75 65.625 64.4687 65.625 56.25C65.625 51.2187 60.1562 47.125 50.6562 45.0625Z" fill="#FCFCFC"/>
</svg>
