<svg width="49" height="49" viewBox="0 0 49 49" fill="none" xmlns="http://www.w3.org/2000/svg">
<path d="M24.4713 4.08325C15.4758 4.08325 8.18701 11.2618 8.18701 20.1144C8.18701 30.6392 21.4272 44.8594 24.4713 44.8594C27.5134 44.8594 40.7536 31.0373 40.7536 20.1144C40.7516 11.2618 33.4628 4.08325 24.4713 4.08325ZM24.3978 32.1153C17.9952 32.1153 12.8073 27.005 12.8073 20.7024C12.8073 14.4018 17.9952 9.29154 24.3978 9.29154C30.7985 9.29154 35.9863 14.4018 35.9863 20.7045C35.9863 27.005 30.7985 32.1153 24.3978 32.1153V32.1153Z" fill="#FCFCFC"/>
<path d="M24.398 11.4967C24.1101 11.4967 23.8263 11.511 23.5445 11.5375C24.2346 12.3215 24.6532 13.3444 24.6532 14.4632C24.6532 16.9357 22.6176 18.9406 20.1064 18.9406C19.2763 18.9432 18.4612 18.7188 17.7495 18.2916C17.0377 17.8645 16.4562 17.2509 16.068 16.5171C15.4146 17.7728 15.0471 19.1938 15.0471 20.7025C15.0471 25.7863 19.2325 29.9084 24.398 29.9084C29.5613 29.9084 33.7488 25.7863 33.7488 20.7005C33.7488 15.6168 29.5613 11.4946 24.398 11.4946V11.4967Z" fill="#FCFCFC"/>
<path d="M16.4967 25.1959C16.6397 25.4437 16.793 25.6808 16.9559 25.9101C17.2877 24.9266 17.96 24.0582 18.9229 23.5023C21.0507 22.2738 23.7876 23.0294 25.0354 25.1906C25.4501 25.9037 25.6619 26.7167 25.648 27.5415C25.634 28.3663 25.3949 29.1716 24.9563 29.8703C26.3616 29.8087 27.7671 29.4189 29.0656 28.6692C33.4407 26.1432 34.9086 20.493 32.3421 16.0476C29.7765 11.6039 24.1483 10.0483 19.7714 12.5753C15.3963 15.1013 13.9294 20.7533 16.4949 25.1969L16.4967 25.1959Z" fill="#FCFCFC"/>
</svg>
