<svg width="75" height="75" viewBox="0 0 75 75" fill="none" xmlns="http://www.w3.org/2000/svg">
<path d="M27.2188 44.6562C26.779 44.2233 26.2211 43.93 25.6151 43.8132C25.0092 43.6965 24.3822 43.7614 23.813 44C23.4253 44.1405 23.0732 44.3645 22.7816 44.6561C22.49 44.9477 22.2661 45.2998 22.1255 45.6875C21.9229 46.1628 21.8412 46.6809 21.8878 47.1955C21.9344 47.7101 22.1079 48.2051 22.3927 48.6362C22.6776 49.0673 23.0648 49.4211 23.5199 49.6659C23.975 49.9106 24.4836 50.0387 25.0003 50.0387C25.517 50.0387 26.0256 49.9106 26.4807 49.6659C26.9358 49.4211 27.323 49.0673 27.6078 48.6362C27.8927 48.2051 28.0662 47.7101 28.1128 47.1955C28.1594 46.6809 28.0777 46.1628 27.875 45.6875C27.7169 45.3087 27.495 44.9599 27.2188 44.6562ZM52.2188 44.6562C51.6146 44.0985 50.8225 43.7888 50.0002 43.7888C49.1779 43.7888 48.3858 44.0985 47.7815 44.6562C47.5053 44.96 47.2834 45.3089 47.1253 45.6877C46.8815 46.256 46.8136 46.8843 46.9306 47.4914C47.0475 48.0986 47.3438 48.6567 47.7813 49.0938C48.085 49.3699 48.4339 49.5919 48.8128 49.75C49.1868 49.915 49.5911 50.0003 49.9999 50.0003C50.4087 50.0003 50.813 49.915 51.187 49.75C51.5655 49.5912 51.9143 49.3693 52.2185 49.0938C52.656 48.6568 52.9523 48.0987 53.0693 47.4916C53.1863 46.8845 53.1186 46.2562 52.8748 45.688C52.7168 45.3091 52.4949 44.9601 52.2188 44.6562V44.6562ZM60.342 59.0478C62.5544 57.2843 64.2431 54.9501 65.2258 52.2971C66.2085 49.6441 66.4479 46.7731 65.9181 43.994L61.2306 18.994C60.5586 15.413 58.6563 12.1794 55.8528 9.85235C53.0492 7.52529 49.5206 6.25106 45.8771 6.25H29.123C25.4795 6.2511 21.9509 7.52535 19.1473 9.85244C16.3438 12.1795 14.4416 15.4131 13.7696 18.9941L9.08208 43.9941C8.55234 46.7732 8.79174 49.6443 9.77445 52.2973C10.7572 54.9503 12.4458 57.2845 14.6582 59.0479L10.2907 63.4156C9.9962 63.7048 9.76194 64.0495 9.60142 64.4297C9.44089 64.8099 9.35728 65.2181 9.35541 65.6309C9.35354 66.0436 9.43345 66.4526 9.59053 66.8342C9.7476 67.2159 9.97873 67.5626 10.2706 67.8545C10.5624 68.1463 10.9092 68.3774 11.2908 68.5345C11.6725 68.6916 12.0815 68.7715 12.4942 68.7696C12.9069 68.7678 13.3152 68.6842 13.6954 68.5236C14.0756 68.3631 14.4202 68.1288 14.7094 67.8344L20.5505 61.9933C21.8191 62.3244 23.1244 62.4946 24.4355 62.5H50.5646C51.8757 62.4946 53.1809 62.3244 54.4495 61.9934L60.2907 67.8344C60.8784 68.4116 61.6704 68.7333 62.4942 68.7296C63.318 68.7259 64.107 68.397 64.6895 67.8145C65.272 67.2319 65.6009 66.4429 65.6047 65.6191C65.6084 64.7953 65.2866 64.0034 64.7094 63.4156L60.342 59.0478ZM19.9097 20.1477C20.3137 17.9992 21.4554 16.0592 23.1376 14.6629C24.8198 13.2666 26.9368 12.5016 29.123 12.5H45.8771C48.0633 12.5016 50.1803 13.2666 51.8625 14.6629C53.5446 16.0592 54.6864 17.9992 55.0904 20.1477L56.1738 25.9256C53.8407 28.5805 50.9683 30.7074 47.7482 32.1644C44.5281 33.6214 41.0344 34.375 37.5 34.375C33.9657 34.375 30.472 33.6214 27.2519 32.1644C24.0318 30.7074 21.1594 28.5805 18.8263 25.9256L19.9097 20.1477ZM57.7759 52.8625C56.8979 53.9238 55.7961 54.7778 54.5494 55.3634C53.3027 55.9491 51.942 56.2518 50.5646 56.25H24.4355C23.0582 56.2495 21.6979 55.9456 20.4514 55.3599C19.2048 54.7742 18.1026 53.9211 17.2231 52.8613C16.3435 51.8014 15.7083 50.5608 15.3625 49.2276C15.0166 47.8945 14.9688 46.5015 15.2222 45.1477L17.4443 33.2966C23.0555 38.0292 30.1595 40.625 37.5 40.625C44.8406 40.625 51.9446 38.0292 57.5558 33.2966L59.7779 45.1477C60.0336 46.5017 59.9868 47.8955 59.6407 49.2293C59.2946 50.563 58.6578 51.8037 57.7759 52.8625V52.8625Z" fill="#848484"/>
</svg>
