<svg width="38" height="38" viewBox="0 0 38 38" fill="none" xmlns="http://www.w3.org/2000/svg">
<path d="M35.3384 9.26903H34.7591V5.79314C34.7591 2.54898 27.5756 0 18.5383 0C9.501 0 2.3175 2.54898 2.3175 5.79314V9.26903H1.73819C0.778698 9.26903 0.000244141 10.0468 0.000244141 11.007V16.8001C0.000244141 17.7596 0.778698 18.5381 1.73819 18.5381H2.3175V30.1243C2.3175 31.4039 3.3552 32.4416 4.63476 32.4416V34.7589C4.63476 36.0384 5.67245 37.0761 6.95201 37.0761H9.26927C10.5488 37.0761 11.5865 36.0384 11.5865 34.7589V32.4416H25.4901V34.7589C25.4901 36.0384 26.5278 37.0761 27.8073 37.0761H30.1246C31.4041 37.0761 32.4418 36.0384 32.4418 34.7589V32.4416H32.9053C34.0639 32.4416 34.7591 31.5147 34.7591 30.5878V18.5381H35.3384C36.2979 18.5381 37.0764 17.7596 37.0764 16.8001V11.007C37.0764 10.0468 36.2979 9.26903 35.3384 9.26903ZM8.11064 28.9657C6.83108 28.9657 5.79339 27.928 5.79339 26.6485C5.79339 25.3689 6.83108 24.3312 8.11064 24.3312C9.3902 24.3312 10.4279 25.3689 10.4279 26.6485C10.4279 27.928 9.3902 28.9657 8.11064 28.9657ZM9.26927 20.8553C7.98971 20.8553 6.95201 19.8176 6.95201 18.5381V9.26903C6.95201 7.98947 7.98971 6.95177 9.26927 6.95177H27.8073C29.0869 6.95177 30.1246 7.98947 30.1246 9.26903V18.5381C30.1246 19.8176 29.0869 20.8553 27.8073 20.8553H9.26927ZM28.966 28.9657C27.6864 28.9657 26.6487 27.928 26.6487 26.6485C26.6487 25.3689 27.6864 24.3312 28.966 24.3312C30.2455 24.3312 31.2832 25.3689 31.2832 26.6485C31.2832 27.928 30.2455 28.9657 28.966 28.9657Z" fill="#848484"/>
</svg>
