<svg width="50" height="50" viewBox="0 0 50 50" fill="none" xmlns="http://www.w3.org/2000/svg">
<path d="M34.375 4.6875C29.2175 4.6875 25 8.90503 25 14.0625C25 15.6128 25.5981 17.1936 26.3672 18.9453C27.1362 20.697 28.1067 22.5525 29.1016 24.2676C31.0913 27.6978 33.1055 30.5664 33.1055 30.5664L34.375 32.4219L35.6445 30.5664C35.6445 30.5664 37.6587 27.6978 39.6484 24.2676C40.6433 22.5525 41.6138 20.697 42.3828 18.9453C43.1519 17.1936 43.75 15.6128 43.75 14.0625C43.75 8.90503 39.5325 4.6875 34.375 4.6875ZM18.7012 7.71484L6.25 13.0371V43.0176L18.7988 37.5977L31.2988 42.2852L43.75 36.9629V23.3398C42.7551 25.2502 41.6504 27.0813 40.625 28.7109V34.9121L32.8125 38.2324V35.6934L30.5176 32.373C30.2734 32.019 29.9866 31.5979 29.6875 31.1523V38.3789L20.3125 34.8633V11.6211L22.0215 12.2559C22.1741 11.2 22.4487 10.1807 22.8516 9.22852L18.7012 7.71484ZM34.375 7.8125C37.8418 7.8125 40.625 10.5957 40.625 14.0625C40.625 14.6667 40.2466 16.095 39.5508 17.6758C38.855 19.2566 37.8723 21.051 36.9141 22.7051C35.6384 24.9023 35.0891 25.6836 34.375 26.7578C33.6609 25.6836 33.1116 24.9023 31.8359 22.7051C30.8777 21.051 29.895 19.2566 29.1992 17.6758C28.5034 16.095 28.125 14.6667 28.125 14.0625C28.125 10.5957 30.9082 7.8125 34.375 7.8125ZM17.1875 11.7188V34.9121L9.375 38.2324V15.0879L17.1875 11.7188ZM34.375 11.7188C33.0811 11.7188 32.0312 12.7686 32.0312 14.0625C32.0312 15.3564 33.0811 16.4062 34.375 16.4062C35.6689 16.4062 36.7188 15.3564 36.7188 14.0625C36.7188 12.7686 35.6689 11.7188 34.375 11.7188Z" fill="#848484"/>
</svg>
